<?xml version="1.0" encoding="utf-8"?>
<!-- Generator: Adobe Illustrator 24.3.0, SVG Export Plug-In . SVG Version: 6.00 Build 0)  -->
<svg version="1.1" id="Layer_1" xmlns="http://www.w3.org/2000/svg" xmlns:xlink="http://www.w3.org/1999/xlink" x="0px" y="0px"
	 viewBox="0 0 180 174" style="enable-background:new 0 0 180 174;" xml:space="preserve">
<style type="text/css">
	.st0{fill:url(#SVGID_1_);}
	.st1{fill:url(#SVGID_2_);}
	.st2{fill:url(#SVGID_3_);}
	.st3{fill:none;}
</style>
<g>
	
		<linearGradient id="SVGID_1_" gradientUnits="userSpaceOnUse" x1="37.6185" y1="207.3006" x2="151.7453" y2="81.7612" gradientTransform="matrix(1 0 0 -1 0 208)">
		<stop  offset="0" style="stop-color:#2B2E84"/>
		<stop  offset="0.0323" style="stop-color:#2C2F86"/>
		<stop  offset="0.2083" style="stop-color:#2E308E"/>
		<stop  offset="0.396" style="stop-color:#2E3192"/>
		<stop  offset="0.4262" style="stop-color:#3C358E"/>
		<stop  offset="0.4842" style="stop-color:#5D4186"/>
		<stop  offset="0.5641" style="stop-color:#8B5778"/>
		<stop  offset="0.6617" style="stop-color:#CB7A5D"/>
		<stop  offset="0.7138" style="stop-color:#F3903F"/>
		<stop  offset="0.8876" style="stop-color:#ED683C"/>
		<stop  offset="1" style="stop-color:#E93E3A"/>
	</linearGradient>
	<path class="st0" d="M52.01,14.34c0.25,0,0.5,0,0.74,0c-0.41,0.5-0.17,1.08-0.17,1.61c-0.02,11.17-0.01,22.34-0.01,33.51
		c0,0.67,0,1.34,0,2.19c-4.72,0-9.28,0-13.87,0c0,18.7,0,37.23,0,55.75c15.51,0,30.93,0,46.33,0c0-9,0-17.9,0-26.77
		c-6.19,0-12.26,0-18.49,0c0,2.57,0,5.09,0,7.65c-7.82,0-15.47,0-23.17,0c0-7.78,0-15.44,0-23.12c7.77,0,15.43,0,23.24,0
		c0,2.07,0,4.03,0,5.97c6.26,0,12.37,0,18.42,0c0-6.24,0-12.35,0-18.57c-4.64,0-9.15,0-13.74,0c0-12.42,0-24.74,0-37.04
		c12.42,0,24.73,0,36.99,0c0,12.44,0,24.74,0,37.17c-4.67,0-9.17,0-13.71,0c0,6.23,0,12.33,0,18.47c6.16,0,12.21,0,18.47,0
		c0-2.21,0-4.34,0-6.41c7.86,0,15.52,0,23.12,0c0,7.75,0,15.37,0,23.01c-7.74,0-15.39,0-23.21,0c0-2.46,0-4.79,0-7.11
		c-6.23,0-12.29,0-18.36,0c0,8.99,0,17.89,0,26.72c15.65,0,31.19,0,46.67,0c0-18.64,0-37.15,0-55.79c-4.65,0-9.16,0-13.83,0
		c0-0.72,0-1.33,0-1.94c0-11.17,0.01-22.34-0.01-33.51c0-0.59,0.25-1.23-0.17-1.8c0.25,0,0.5,0,0.74,0c0.58,0.56,1.3,0.3,1.95,0.3
		c10.73,0.02,21.47,0.01,32.2,0.02c0.72,0,1.48-0.2,2.33,0.33c0,12.14,0,24.35,0,36.56c-4.56,0-9.12,0-13.84,0
		c0,21.97,0,43.6,0,65.38c-18.8,0-37.45,0-56.07,0c0,8.39,0,16.63,0,25.02c2.11,0,4.14,0,6.24,0c0,7.34,0,14.54,0,21.73
		c-7.32,0-14.65,0-21.97,0c0-7.22,0-14.44,0-21.8c2.28,0,4.24,0,6.21,0c0-8.42,0-16.69,0-25.12c-18.63,0-37.14,0-55.8,0
		c0-21.77,0-43.38,0-65.21c-4.67,0-9.18,0-13.7,0c0-12.26,0-24.52,0-36.9c0.97,0,1.65,0,2.33,0c10.73,0,21.47,0.01,32.2-0.01
		C50.72,14.64,51.44,14.9,52.01,14.34z M43.17,23.84c-6.19,0-12.29,0-18.38,0c0,6.22,0,12.31,0,18.36c6.23,0,12.33,0,18.38,0
		C43.17,36,43.17,29.95,43.17,23.84z M155.27,23.86c-6.24,0-12.33,0-18.46,0c0,6.19,0,12.25,0,18.39c6.18,0,12.28,0,18.46,0
		C155.27,36.11,155.27,30.06,155.27,23.86z M80.59,43.18c6.25,0,12.34,0,18.46,0c0-6.2,0-12.25,0-18.38c-6.18,0-12.28,0-18.46,0
		C80.59,30.94,80.59,36.99,80.59,43.18z"/>
	
		<linearGradient id="SVGID_2_" gradientUnits="userSpaceOnUse" x1="19.3501" y1="190.6929" x2="133.4769" y2="65.1535" gradientTransform="matrix(1 0 0 -1 0 208)">
		<stop  offset="0" style="stop-color:#2B2E84"/>
		<stop  offset="0.053" style="stop-color:#2C2B7C"/>
		<stop  offset="0.1627" style="stop-color:#2B2670"/>
		<stop  offset="0.2757" style="stop-color:#2B2369"/>
		<stop  offset="0.396" style="stop-color:#2B2166"/>
		<stop  offset="0.4268" style="stop-color:#362666"/>
		<stop  offset="0.486" style="stop-color:#523565"/>
		<stop  offset="0.5675" style="stop-color:#7F4E61"/>
		<stop  offset="0.6671" style="stop-color:#C67651"/>
		<stop  offset="0.7138" style="stop-color:#F3903F"/>
		<stop  offset="0.8876" style="stop-color:#ED683C"/>
		<stop  offset="1" style="stop-color:#E93E3A"/>
	</linearGradient>
	<path class="st1" d="M15.53,51.55c-0.13,0.01-0.26,0.02-0.39,0.03c0-12.38,0-24.77,0-37.24c12.29,0,24.58,0,36.87,0
		c-0.58,0.56-1.3,0.3-1.95,0.3c-10.73,0.02-21.47,0.01-32.2,0.01c-0.68,0-1.35,0-2.33,0C15.53,27.03,15.53,39.29,15.53,51.55z"/>
	
		<linearGradient id="SVGID_3_" gradientUnits="userSpaceOnUse" x1="90.3942" y1="255.2784" x2="204.5209" y2="129.739" gradientTransform="matrix(1 0 0 -1 0 208)">
		<stop  offset="0" style="stop-color:#2B2E84"/>
		<stop  offset="0.053" style="stop-color:#2C2B7C"/>
		<stop  offset="0.1627" style="stop-color:#2B2670"/>
		<stop  offset="0.2757" style="stop-color:#2B2369"/>
		<stop  offset="0.396" style="stop-color:#2B2166"/>
		<stop  offset="0.4268" style="stop-color:#362666"/>
		<stop  offset="0.486" style="stop-color:#523565"/>
		<stop  offset="0.5675" style="stop-color:#7F4E61"/>
		<stop  offset="0.6671" style="stop-color:#C67651"/>
		<stop  offset="0.7138" style="stop-color:#F3903F"/>
		<stop  offset="0.8876" style="stop-color:#ED683C"/>
		<stop  offset="1" style="stop-color:#E93E3A"/>
	</linearGradient>
	<path class="st2" d="M164.85,51.59c-0.13-0.01-0.26-0.02-0.39-0.03c0-12.21,0-24.42,0-36.56c-0.85-0.53-1.61-0.33-2.33-0.33
		c-10.73-0.02-21.47-0.01-32.2-0.02c-0.65,0-1.37,0.26-1.95-0.3c12.29,0,24.58,0,36.87,0C164.85,26.76,164.85,39.17,164.85,51.59z"
		/>
</g>
<line class="st3" x1="112.43" y1="129.14" x2="112.43" y2="69.8"/>
</svg>
