<?xml version="1.0" standalone="no"?>
<!DOCTYPE svg PUBLIC "-//W3C//DTD SVG 20010904//EN"
 "http://www.w3.org/TR/2001/REC-SVG-20010904/DTD/svg10.dtd">
<svg version="1.0" xmlns="http://www.w3.org/2000/svg"
 width="720.000000pt" height="720.000000pt" viewBox="0 0 720.000000 720.000000"
 preserveAspectRatio="xMidYMid meet">
<metadata>
Created by potrace 1.14, written by Peter Selinger 2001-2017
</metadata>
<g transform="translate(0.000000,720.000000) scale(0.100000,-0.100000)"
fill="#000000" stroke="none">
<path d="M608 6485 c-2 -16 -2 -1406 1 -1455 1 -13 38 -15 281 -13 l280 1 0
-1304 0 -1304 1115 0 1115 0 1 -27 c0 -23 0 -97 -2 -228 0 -5 1 -55 1 -110 0
-55 1 -129 1 -165 0 -36 0 -137 0 -225 0 -88 0 -181 0 -206 l-1 -45 -112 1
c-62 1 -118 0 -124 -2 -7 -3 -10 -138 -10 -437 l0 -433 438 1 c435 0 438 0
439 20 3 122 -1 839 -5 844 -4 3 -59 6 -124 6 l-117 1 -1 498 c-1 273 2 497 5
498 3 1 508 2 1121 3 l1115 1 0 1307 0 1306 279 0 c249 -1 280 1 285 15 3 9 6
344 5 744 l-1 728 -390 0 c-236 0 -389 -3 -386 -9 4 -5 0 -6 -8 0 -8 5 -170 9
-361 9 l-348 1 -1 -41 c-1 -22 -2 -356 -3 -742 -1 -694 -1 -702 19 -705 11 -2
136 -3 278 -2 l257 0 -2 -1115 -3 -1116 -915 0 c-503 -1 -922 1 -930 3 -14 3
-16 64 -16 533 0 291 3 529 6 530 3 1 168 2 366 2 l362 2 -2 -133 c0 -74 2
-138 5 -143 3 -5 195 -8 465 -7 l459 3 0 458 1 457 -462 0 -462 0 0 -121 c0
-66 -3 -124 -7 -127 -8 -8 -724 -11 -727 -3 0 3 -2 169 -3 369 l-2 362 46 1
c25 0 148 0 274 0 l227 0 0 745 0 744 -737 -2 -738 -3 -2 -737 c-1 -561 1
-738 10 -739 7 0 130 -1 275 -1 l262 -1 1 -36 c1 -62 0 -237 -2 -247 -1 -5 -1
-13 1 -19 2 -13 2 -287 0 -300 -1 -5 -2 -13 0 -17 1 -8 2 -85 1 -110 -1 -17
-730 -19 -732 -3 -1 5 -3 53 -4 105 -1 52 -3 102 -4 110 -1 13 -57 15 -448 13
-247 0 -455 -2 -463 -2 -14 -1 -16 -55 -15 -455 0 -250 3 -457 7 -461 3 -4
212 -7 462 -8 l456 -2 1 45 c0 25 1 94 2 155 l2 110 367 0 c238 0 368 -4 369
-10 1 -5 0 -14 -1 -20 -1 -5 -1 -17 -1 -25 2 -49 2 -537 1 -545 -1 -5 -2 -12
-1 -15 6 -15 3 -349 -3 -358 -3 -6 -3 -13 2 -16 4 -2 6 -22 4 -43 l-4 -38
-924 0 -924 0 0 50 c-4 407 1 2169 5 2173 3 4 128 7 277 7 l271 0 1 745 1 746
-747 0 c-743 0 -747 0 -750 -21z m1112 -364 c3 0 6 -164 5 -363 l0 -363 -367
-1 -367 -1 0 361 c1 202 5 363 10 366 7 5 702 6 719 1z m4490 -363 l0 -368
-369 0 -369 0 0 363 c0 199 2 364 3 367 2 3 168 6 369 6 l366 0 0 -368z
m-2249 314 c1 -21 1 -705 0 -713 -1 -3 -166 -5 -368 -5 l-368 1 -1 360 c0 198
1 363 2 366 2 3 168 6 369 7 336 1 365 0 366 -16z"/>
</g>
</svg>
